# xmcd CD database file
#
# Track frame offsets:
#	150
#	45256
#	88784
#	122789
#	170700
#	211486
#	256360
#	305503
#
# Disc length: 4412 seconds
#
# Revision: 1
# Processed by: cddbd v1.5.2PL0 Copyright (c) Steve Scherf et al.
# Submitted via: CDex 1.70beta2
#
DISCID=6c113a08
DTITLE=Francois Carrier Trio - Play
DYEAR=2004
DGENRE=Jazz
TTITLE0=Play
TTITLE1=Le Marais
TTITLE2=Open Conversation
TTITLE3=Insomnie
TTITLE4=Ballet
TTITLE5=Ink
TTITLE6=La Danse de Grand-Mie
TTITLE7=Unloaded
EXTD=YEAR: 2004
EXTT0=
EXTT1=
EXTT2=
EXTT3=
EXTT4=
EXTT5=
EXTT6=
EXTT7=
PLAYORDER=
